<svg width="200" height="200" viewBox="0 0 200 200" fill="none" xmlns="http://www.w3.org/2000/svg">
<g clip-path="url(#clip0_15_2)">
<rect width="200" height="200" fill="white"/>
<path d="M38.6141 151V49.1818H76.7959C84.6179 49.1818 91.1804 50.5407 96.4834 53.2585C101.82 55.9763 105.847 59.7879 108.564 64.6932C111.315 69.5653 112.691 75.2495 112.691 81.7457C112.691 88.2751 111.299 93.9427 108.515 98.7486C105.764 103.521 101.704 107.217 96.3343 109.835C90.965 112.42 84.3693 113.713 76.5473 113.713H49.3527V98.4006H74.0615C78.6354 98.4006 82.3807 97.7708 85.2973 96.5114C88.214 95.2187 90.3684 93.3461 91.7604 90.8935C93.1856 88.4077 93.8982 85.3584 93.8982 81.7457C93.8982 78.133 93.1856 75.0507 91.7604 72.4986C90.3352 69.9134 88.1643 67.9579 85.2476 66.6321C82.331 65.2732 78.5691 64.5938 73.9621 64.5938H57.0587V151H38.6141ZM91.2135 104.864L116.42 151H95.8371L71.0786 104.864H91.2135ZM129.283 151H122.251L135.053 114.636H143.185L156.005 151H148.974L139.261 122.094H138.977L129.283 151ZM129.513 136.742H148.69V142.033H129.513V136.742ZM167.882 114.636V151H161.294V114.636H167.882Z" fill="black"/>
</g>
<defs>
<clipPath id="clip0_15_2">
<rect width="200" height="200" fill="white"/>
</clipPath>
</defs>
</svg>
